<?xml version="1.0" encoding="UTF-8" standalone="no"?><svg xmlns="http://www.w3.org/2000/svg" xmlns:xlink="http://www.w3.org/1999/xlink" contentScriptType="application/ecmascript" contentStyleType="text/css" height="335px" preserveAspectRatio="none" style="width:556px;height:335px;background:#FFFFFF;" version="1.1" viewBox="0 0 556 335" width="556px" zoomAndPan="magnify"><defs/><g><ellipse cx="253.5" cy="16" fill="#000000" rx="10" ry="10" style="stroke:none;stroke-width:1.0;"/><g id="ST_WAIT_PRESS"><rect fill="#FFFFFF" height="50" rx="12.5" ry="12.5" style="stroke:#000000;stroke-width:1.5;" width="134" x="186.5" y="87"/><line style="stroke:#000000;stroke-width:1.5;" x1="186.5" x2="320.5" y1="114.6094" y2="114.6094"/><text fill="#000000" font-family="sans-serif" font-size="14" lengthAdjust="spacing" textLength="114" x="196.5" y="106.5332">ST_WAIT_PRESS</text></g><g id="ST_SHORT_PRESS"><rect fill="#FFFFFF" height="52.7031" rx="12.5" ry="12.5" style="stroke:#000000;stroke-width:1.5;" width="219" x="7" y="277"/><line style="stroke:#000000;stroke-width:1.5;" x1="7" x2="226" y1="304.6094" y2="304.6094"/><text fill="#000000" font-family="sans-serif" font-size="14" lengthAdjust="spacing" textLength="128" x="52.5" y="296.5332">ST_SHORT_PRESS</text><text fill="#000000" font-family="sans-serif" font-size="12" lengthAdjust="spacing" textLength="199" x="12" y="322.0664">entry / print(Button n# short pressed)</text></g><g id="ST_LONG_PRESS"><rect fill="#FFFFFF" height="52.7031" rx="12.5" ry="12.5" style="stroke:#000000;stroke-width:1.5;" width="215" x="334" y="277"/><line style="stroke:#000000;stroke-width:1.5;" x1="334" x2="549" y1="304.6094" y2="304.6094"/><text fill="#000000" font-family="sans-serif" font-size="14" lengthAdjust="spacing" textLength="119" x="382" y="296.5332">ST_LONG_PRESS</text><text fill="#000000" font-family="sans-serif" font-size="12" lengthAdjust="spacing" textLength="195" x="339" y="322.0664">entry / print(Button n# long pressed)</text></g><!--MD5=[eb4397d11a94ec6e57a00692973cadc0]
link *start to ST_WAIT_PRESS--><path d="M253.5,26.01 C253.5,38.7 253.5,62.41 253.5,81.57 " fill="none" id="*start-to-ST_WAIT_PRESS" style="stroke:#000000;stroke-width:1.0;"/><polygon fill="#000000" points="253.5,86.84,257.5,77.84,253.5,81.84,249.5,77.84,253.5,86.84" style="stroke:#000000;stroke-width:1.0;"/><!--MD5=[279d1c4225c0a8f9c43af98bc68db43d]
link ST_WAIT_PRESS to ST_SHORT_PRESS--><path d="M234.02,137.24 C220.65,154.07 202.66,177.14 187.5,198 C169.56,222.68 150.15,251.39 136.17,272.47 " fill="none" id="ST_WAIT_PRESS-to-ST_SHORT_PRESS" style="stroke:#000000;stroke-width:1.0;"/><polygon fill="#000000" points="133.27,276.85,141.5822,271.5672,136.0369,272.6854,134.9187,267.1401,133.27,276.85" style="stroke:#000000;stroke-width:1.0;"/><text fill="#000000" font-family="sans-serif" font-size="13" lengthAdjust="spacing" textLength="115" x="188.5" y="212.4951">evButtonShortPress</text><!--MD5=[56e5f60c42f00bf487c32391a49cb9c1]
reverse link ST_WAIT_PRESS to ST_SHORT_PRESS--><path d="M181.53,136.72 C164.79,144.54 147.96,154.52 134.5,167 C104.74,194.59 106.71,245.78 111.29,276.73 " fill="none" id="ST_WAIT_PRESS-backto-ST_SHORT_PRESS" style="stroke:#000000;stroke-width:1.0;"/><polygon fill="#000000" points="186.24,134.57,176.3915,134.6528,181.6882,136.639,179.7019,141.9357,186.24,134.57" style="stroke:#000000;stroke-width:1.0;"/><!--MD5=[2556ee9f1bae7ec71d93c2884170baf3]
link ST_WAIT_PRESS to ST_LONG_PRESS--><path d="M274.58,137.28 C293.26,158.5 321.53,189.93 347.5,216 C367,235.58 389.78,256.58 408.03,272.99 " fill="none" id="ST_WAIT_PRESS-to-ST_LONG_PRESS" style="stroke:#000000;stroke-width:1.0;"/><polygon fill="#000000" points="412.09,276.64,408.0591,267.6538,408.3672,273.3023,402.7187,273.6104,412.09,276.64" style="stroke:#000000;stroke-width:1.0;"/><text fill="#000000" font-family="sans-serif" font-size="13" lengthAdjust="spacing" textLength="112" x="348.5" y="212.4951">evButtonLongPress</text><!--MD5=[897f56eb63a518752c4928c7495875b4]
link ST_LONG_PRESS to ST_WAIT_PRESS--><path d="M459.31,276.9 C472.52,254.44 485.68,221.75 469.5,198 C437.48,150.99 375.1,129.98 325.58,120.59 " fill="none" id="ST_LONG_PRESS-to-ST_WAIT_PRESS" style="stroke:#000000;stroke-width:1.0;"/><polygon fill="#000000" points="320.52,119.66,328.6522,125.2159,325.4382,120.5607,330.0933,117.3467,320.52,119.66" style="stroke:#000000;stroke-width:1.0;"/><!--MD5=[f7ffae832cd87d173feb8baca194aaba]
@startuml

skinparam shadowing false
'skinparam linetype polyline

skinparam Arrow {
    Color black
}

'for choice state
skinparam activity {
    BackgroundColor white
    BorderColor black
}

skinparam state {
    BackgroundColor white
    BorderColor black
}

[*] - -> ST_WAIT_PRESS
ST_WAIT_PRESS - - -> ST_SHORT_PRESS : evButtonShortPress
ST_WAIT_PRESS - - -> ST_LONG_PRESS : evButtonLongPress
ST_SHORT_PRESS : entry / print(Button n# short pressed)
ST_LONG_PRESS : entry / print(Button n# long pressed)

ST_SHORT_PRESS - -left- -> ST_WAIT_PRESS
ST_LONG_PRESS - -right- -> ST_WAIT_PRESS

@enduml

@startuml

skinparam shadowing false

skinparam Arrow {
    Color black
}

skinparam activity {
    BackgroundColor white
    BorderColor black
}

skinparam state {
    BackgroundColor white
    BorderColor black
}

[*] - -> ST_WAIT_PRESS
ST_WAIT_PRESS - - -> ST_SHORT_PRESS : evButtonShortPress
ST_WAIT_PRESS - - -> ST_LONG_PRESS : evButtonLongPress
ST_SHORT_PRESS : entry / print(Button n# short pressed)
ST_LONG_PRESS : entry / print(Button n# long pressed)

ST_SHORT_PRESS - -left- -> ST_WAIT_PRESS
ST_LONG_PRESS - -right- -> ST_WAIT_PRESS

@enduml

PlantUML version 1.2021.14(Fri Nov 12 17:46:50 CET 2021)
(GPL source distribution)
Java Runtime: Java(TM) SE Runtime Environment
JVM: Java HotSpot(TM) 64-Bit Server VM
Default Encoding: Cp1252
Language: fr
Country: CH
--></g></svg>