<?xml version="1.0" encoding="UTF-8" standalone="no"?><svg xmlns="http://www.w3.org/2000/svg" xmlns:xlink="http://www.w3.org/1999/xlink" contentScriptType="application/ecmascript" contentStyleType="text/css" height="577px" preserveAspectRatio="none" style="width:458px;height:577px;background:#FFFFFF;" version="1.1" viewBox="0 0 458 577" width="458px" zoomAndPan="magnify"><defs/><g><ellipse cx="253" cy="16" fill="#000000" rx="10" ry="10" style="stroke:none;stroke-width:1.0;"/><g id="ST_WAIT_PRESS"><rect fill="#FFFFFF" height="50" rx="12.5" ry="12.5" style="stroke:#000000;stroke-width:1.5;" width="134" x="186" y="87"/><line style="stroke:#000000;stroke-width:1.5;" x1="186" x2="320" y1="114.6094" y2="114.6094"/><text fill="#000000" font-family="sans-serif" font-size="14" lengthAdjust="spacing" textLength="114" x="196" y="106.5332">ST_WAIT_PRESS</text></g><g id="ST_SHORT_PRESS"><rect fill="#FFFFFF" height="52.7031" rx="12.5" ry="12.5" style="stroke:#000000;stroke-width:1.5;" width="148" x="7" y="215"/><line style="stroke:#000000;stroke-width:1.5;" x1="7" x2="155" y1="242.6094" y2="242.6094"/><text fill="#000000" font-family="sans-serif" font-size="14" lengthAdjust="spacing" textLength="128" x="17" y="234.5332">ST_SHORT_PRESS</text><text fill="#000000" font-family="sans-serif" font-size="12" lengthAdjust="spacing" textLength="89" x="12" y="260.0664">entry / nBlink = 2</text></g><g id="ST_LONG_PRESS"><rect fill="#FFFFFF" height="52.7031" rx="12.5" ry="12.5" style="stroke:#000000;stroke-width:1.5;" width="139" x="190.5" y="215"/><line style="stroke:#000000;stroke-width:1.5;" x1="190.5" x2="329.5" y1="242.6094" y2="242.6094"/><text fill="#000000" font-family="sans-serif" font-size="14" lengthAdjust="spacing" textLength="119" x="200.5" y="234.5332">ST_LONG_PRESS</text><text fill="#000000" font-family="sans-serif" font-size="12" lengthAdjust="spacing" textLength="89" x="195.5" y="260.0664">entry / nBlink = 4</text></g><g id="ST_ON"><rect fill="#FFFFFF" height="50" rx="12.5" ry="12.5" style="stroke:#000000;stroke-width:1.5;" width="66" x="51" y="329"/><line style="stroke:#000000;stroke-width:1.5;" x1="51" x2="117" y1="356.6094" y2="356.6094"/><text fill="#000000" font-family="sans-serif" font-size="14" lengthAdjust="spacing" textLength="46" x="61" y="348.5332">ST_ON</text></g><g id="ST_OFF"><rect fill="#FFFFFF" height="52.7031" rx="12.5" ry="12.5" style="stroke:#000000;stroke-width:1.5;" width="78" x="204" y="519"/><line style="stroke:#000000;stroke-width:1.5;" x1="204" x2="282" y1="546.6094" y2="546.6094"/><text fill="#000000" font-family="sans-serif" font-size="14" lengthAdjust="spacing" textLength="55" x="215.5" y="538.5332">ST_OFF</text><text fill="#000000" font-family="sans-serif" font-size="12" lengthAdjust="spacing" textLength="58" x="209" y="564.0664">nBlink -= 1</text></g><!--MD5=[eb4397d11a94ec6e57a00692973cadc0]
link *start to ST_WAIT_PRESS--><path d="M253,26.01 C253,38.7 253,62.41 253,81.57 " fill="none" id="*start-to-ST_WAIT_PRESS" style="stroke:#000000;stroke-width:1.0;"/><polygon fill="#000000" points="253,86.84,257,77.84,253,81.84,249,77.84,253,86.84" style="stroke:#000000;stroke-width:1.0;"/><!--MD5=[279d1c4225c0a8f9c43af98bc68db43d]
link ST_WAIT_PRESS to ST_SHORT_PRESS--><path d="M185.7,131.8 C164.3,140.1 141.63,151.57 124,167 C110.71,178.63 100.45,195.42 93.3,210.02 " fill="none" id="ST_WAIT_PRESS-to-ST_SHORT_PRESS" style="stroke:#000000;stroke-width:1.0;"/><polygon fill="#000000" points="90.99,214.87,98.4795,208.4741,93.1458,210.3586,91.2613,205.0249,90.99,214.87" style="stroke:#000000;stroke-width:1.0;"/><text fill="#000000" font-family="sans-serif" font-size="13" lengthAdjust="spacing" textLength="115" x="125" y="181.4951">evButtonShortPress</text><!--MD5=[2556ee9f1bae7ec71d93c2884170baf3]
link ST_WAIT_PRESS to ST_LONG_PRESS--><path d="M250.43,137.04 C249.32,151.05 248.57,169.05 250,185 C250.73,193.16 252.05,201.91 253.5,209.99 " fill="none" id="ST_WAIT_PRESS-to-ST_LONG_PRESS" style="stroke:#000000;stroke-width:1.0;"/><polygon fill="#000000" points="254.41,214.93,256.7233,205.3567,253.5093,210.0118,248.8541,206.7978,254.41,214.93" style="stroke:#000000;stroke-width:1.0;"/><text fill="#000000" font-family="sans-serif" font-size="13" lengthAdjust="spacing" textLength="112" x="251" y="181.4951">evButtonLongPress</text><!--MD5=[2c62a4a502b95c01ecacd6f38b8140b5]
link ST_SHORT_PRESS to ST_ON--><path d="M81.7,268.13 C82.14,284.65 82.73,306.2 83.2,323.44 " fill="none" id="ST_SHORT_PRESS-to-ST_ON" style="stroke:#000000;stroke-width:1.0;"/><polygon fill="#000000" points="83.34,328.65,87.0813,319.5394,83.1972,323.652,79.0846,319.7679,83.34,328.65" style="stroke:#000000;stroke-width:1.0;"/><!--MD5=[1da6c72427d1cd3405b955d21d248009]
link ST_LONG_PRESS to ST_ON--><path d="M219.18,268.13 C189.78,286.59 150.41,311.31 121.74,329.31 " fill="none" id="ST_LONG_PRESS-to-ST_ON" style="stroke:#000000;stroke-width:1.0;"/><polygon fill="#000000" points="117.23,332.13,126.9807,330.7432,121.4676,329.4762,122.7346,323.963,117.23,332.13" style="stroke:#000000;stroke-width:1.0;"/><!--MD5=[1606ae062b654eb139eb8d2eb6b84344]
link ST_ON to ST_OFF--><path d="M83.98,379.16 C85.08,401.47 89.68,434.6 106,458 C128.76,490.63 168.19,513.61 198.92,527.64 " fill="none" id="ST_ON-to-ST_OFF" style="stroke:#000000;stroke-width:1.0;"/><polygon fill="#000000" points="203.77,529.81,197.2042,522.469,199.2104,527.7582,193.9212,529.7644,203.77,529.81" style="stroke:#000000;stroke-width:1.0;"/><text fill="#000000" font-family="sans-serif" font-size="13" lengthAdjust="spacing" textLength="92" x="107" y="454.4951">after(blink_time)</text><!--MD5=[f69ca377d9ed9a4f5e9f860d9d245818]
link ST_OFF to ST_ON--><path d="M237.91,518.77 C232.47,496.22 222.07,463.48 204,440 C182.07,411.5 147.95,388.63 121.68,373.82 " fill="none" id="ST_OFF-to-ST_ON" style="stroke:#000000;stroke-width:1.0;"/><polygon fill="#000000" points="117.21,371.33,123.1239,379.2056,121.5774,373.7643,127.0188,372.2178,117.21,371.33" style="stroke:#000000;stroke-width:1.0;"/><text fill="#000000" font-family="sans-serif" font-size="13" lengthAdjust="spacing" textLength="92" x="216" y="454.4951">after(blink_time)</text><!--MD5=[0fa42d81a10d3c6036ba00084f6854ba]
link ST_OFF to ST_WAIT_PRESS--><path d="M282.01,537.04 C325.56,526.18 390,501.43 390,450 C390,240.5 390,240.5 390,240.5 C390,206.4 390.26,192.83 368,167 C356.42,153.56 340.76,143.24 324.73,135.39 " fill="none" id="ST_OFF-to-ST_WAIT_PRESS" style="stroke:#000000;stroke-width:1.0;"/><polygon fill="#000000" points="320.2,133.25,326.6152,140.723,324.7169,135.3941,330.0458,133.4959,320.2,133.25" style="stroke:#000000;stroke-width:1.0;"/><text fill="#000000" font-family="sans-serif" font-size="13" lengthAdjust="spacing" textLength="59" x="391" y="359.4951">nBlink = 0</text><!--MD5=[99bc5cb606d8378e7a881e8e2768c513]
@startuml

skinparam shadowing false
'skinparam linetype polyline

skinparam Arrow {
    Color black
}

'for choice state
skinparam activity {
    BackgroundColor white
    BorderColor black
}

skinparam state {
    BackgroundColor white
    BorderColor black
}

[*] - -> ST_WAIT_PRESS
ST_WAIT_PRESS - -> ST_SHORT_PRESS : evButtonShortPress
ST_WAIT_PRESS - -> ST_LONG_PRESS : evButtonLongPress
ST_SHORT_PRESS - -> ST_ON
ST_SHORT_PRESS : entry / nBlink = 2
ST_LONG_PRESS - -> ST_ON
ST_LONG_PRESS : entry / nBlink = 4
ST_ON - - -> ST_OFF : after(blink_time)
ST_OFF - - -> ST_ON : after(blink_time)
ST_OFF : nBlink -= 1
ST_OFF - -> ST_WAIT_PRESS : nBlink = 0

@enduml

@startuml

skinparam shadowing false

skinparam Arrow {
    Color black
}

skinparam activity {
    BackgroundColor white
    BorderColor black
}

skinparam state {
    BackgroundColor white
    BorderColor black
}

[*] - -> ST_WAIT_PRESS
ST_WAIT_PRESS - -> ST_SHORT_PRESS : evButtonShortPress
ST_WAIT_PRESS - -> ST_LONG_PRESS : evButtonLongPress
ST_SHORT_PRESS - -> ST_ON
ST_SHORT_PRESS : entry / nBlink = 2
ST_LONG_PRESS - -> ST_ON
ST_LONG_PRESS : entry / nBlink = 4
ST_ON - - -> ST_OFF : after(blink_time)
ST_OFF - - -> ST_ON : after(blink_time)
ST_OFF : nBlink -= 1
ST_OFF - -> ST_WAIT_PRESS : nBlink = 0

@enduml

PlantUML version 1.2021.14(Fri Nov 12 17:46:50 CET 2021)
(GPL source distribution)
Java Runtime: Java(TM) SE Runtime Environment
JVM: Java HotSpot(TM) 64-Bit Server VM
Default Encoding: Cp1252
Language: fr
Country: CH
--></g></svg>